<?xml version="1.0" encoding="iso-8859-1"?>
<!-- Generator: Adobe Illustrator 25.4.0, SVG Export Plug-In . SVG Version: 6.00 Build 0)  -->
<svg version="1.1" xmlns="http://www.w3.org/2000/svg" xmlns:xlink="http://www.w3.org/1999/xlink" x="0px" y="0px"
	 viewBox="0 0 64 64" style="enable-background:new 0 0 64 64;" xml:space="preserve">
<g id="camera">
	<g>
		<path style="fill:#231F20;" d="M59.406,56.4H4.594C2.061,56.4,0,54.339,0,51.806V18.017c0-2.533,2.061-4.594,4.594-4.594h12.72
			l0.878-3.138C18.634,8.704,20.089,7.6,21.731,7.6h20.538c1.642,0,3.097,1.104,3.539,2.685l0.878,3.138h12.72
			c2.533,0,4.594,2.061,4.594,4.594v33.789C64,54.339,61.939,56.4,59.406,56.4z M4.594,15.261c-1.52,0-2.756,1.236-2.756,2.756
			v33.789c0,1.52,1.236,2.756,2.756,2.756h54.813c1.52,0,2.756-1.236,2.756-2.756V18.017c0-1.52-1.236-2.756-2.756-2.756H45.989
			c-0.412,0-0.774-0.275-0.885-0.671l-1.065-3.809c-0.221-0.79-0.949-1.343-1.77-1.343H21.731c-0.821,0-1.549,0.552-1.77,1.342
			l-1.065,3.81c-0.111,0.397-0.472,0.671-0.885,0.671H4.594z"/>
		<path style="fill:#231F20;" d="M15.781,14.342h-1.837v-3.986H6.421v3.986H4.583v-3.986c0-1.013,0.824-1.837,1.837-1.837h7.522
			c1.013,0,1.837,0.824,1.837,1.837V14.342z"/>
		<path style="fill:#231F20;" d="M32,51.307c-9.127,0-16.551-7.425-16.551-16.551c0-9.127,7.425-16.551,16.551-16.551
			s16.551,7.425,16.551,16.551C48.551,43.883,41.127,51.307,32,51.307z M32,20.043c-8.113,0-14.714,6.601-14.714,14.714
			c0,8.113,6.601,14.713,14.714,14.713s14.714-6.601,14.714-14.713C46.714,26.643,40.113,20.043,32,20.043z"/>
		<path style="fill:#231F20;" d="M32,47.152c-6.835,0-12.396-5.561-12.396-12.396c0-6.835,5.561-12.396,12.396-12.396
			s12.396,5.561,12.396,12.396C44.396,41.591,38.835,47.152,32,47.152z M32,24.198c-5.822,0-10.558,4.737-10.558,10.559
			S26.178,45.314,32,45.314s10.558-4.736,10.558-10.558S37.822,24.198,32,24.198z"/>
		<path style="fill:#231F20;" d="M59.273,24.198h-9.708c-0.507,0-0.919-0.411-0.919-0.919v-4.155c0-0.507,0.411-0.919,0.919-0.919
			h9.708c0.507,0,0.919,0.411,0.919,0.919v4.155C60.191,23.786,59.78,24.198,59.273,24.198z M50.483,22.36h7.871v-2.318h-7.871
			V22.36z"/>
	</g>
</g>
<g id="Layer_1">
</g>
</svg>
