<svg width="177" height="177" viewBox="0 0 177 177" fill="none" xmlns="http://www.w3.org/2000/svg">
<g id="camera 1">
<g id="camera">
<g id="Group">
<path id="Vector" d="M164.295 155.981H12.7053C5.69995 155.981 0 150.281 0 143.276V49.8283C0 42.823 5.69995 37.123 12.7053 37.123H47.884L50.3122 28.4445C51.5347 24.072 55.5586 21.0188 60.0998 21.0188H116.9C121.441 21.0188 125.465 24.072 126.688 28.4445L129.116 37.123H164.295C171.3 37.123 177 42.823 177 49.8283V143.276C177 150.281 171.3 155.981 164.295 155.981ZM12.7053 42.2063C8.50153 42.2063 5.08322 45.6246 5.08322 49.8283V143.276C5.08322 147.48 8.50153 150.898 12.7053 150.898H164.297C168.501 150.898 171.92 147.48 171.92 143.276V49.8283C171.92 45.6246 168.501 42.2063 164.297 42.2063H127.188C126.049 42.2063 125.048 41.4457 124.741 40.3505L121.795 29.8163C121.184 27.6314 119.171 26.102 116.9 26.102H60.0998C57.8292 26.102 55.8158 27.6286 55.2046 29.8135L52.2593 40.3505C51.9523 41.4485 50.9539 42.2063 49.8117 42.2063H12.7053Z" fill="#FFD700"/>
<path id="Vector_2" d="M43.6443 39.6645H38.5639V28.6408H17.7581V39.6645H12.6749V28.6408C12.6749 25.8392 14.9537 23.5603 17.7553 23.5603H38.5584C41.3599 23.5603 43.6388 25.8392 43.6388 28.6408V39.6645H43.6443Z" fill="#FFD700"/>
<path id="Vector_3" d="M88.5 141.896C63.2581 141.896 42.7261 121.361 42.7261 96.122C42.7261 70.8801 63.2609 50.3481 88.5 50.3481C113.739 50.3481 134.274 70.8829 134.274 96.122C134.274 121.364 113.742 141.896 88.5 141.896ZM88.5 55.4314C66.0625 55.4314 47.8066 73.6873 47.8066 96.1248C47.8066 118.562 66.0625 136.815 88.5 136.815C110.938 136.815 129.193 118.56 129.193 96.1248C129.193 73.6845 110.938 55.4314 88.5 55.4314Z" fill="#FFD700"/>
<path id="Vector_4" d="M88.5 130.405C69.5969 130.405 54.2173 115.025 54.2173 96.122C54.2173 77.219 69.5969 61.8394 88.5 61.8394C107.403 61.8394 122.783 77.219 122.783 96.122C122.783 115.025 107.403 130.405 88.5 130.405ZM88.5 66.9226C72.3985 66.9226 59.3005 80.0233 59.3005 96.1248C59.3005 112.226 72.3985 125.322 88.5 125.322C104.601 125.322 117.699 112.224 117.699 96.122C117.699 80.0206 104.601 66.9226 88.5 66.9226Z" fill="#FFD700"/>
<path id="Vector_5" d="M163.927 66.9225H137.078C135.676 66.9225 134.537 65.7859 134.537 64.3809V52.8898C134.537 51.4876 135.673 50.3481 137.078 50.3481H163.927C165.329 50.3481 166.469 51.4848 166.469 52.8898V64.3809C166.466 65.7831 165.329 66.9225 163.927 66.9225ZM139.617 61.8393H161.385V55.4286H139.617V61.8393Z" fill="#FFD700"/>
</g>
</g>
</g>
</svg>
