<?xml version="1.0" encoding="iso-8859-1"?>
<!-- Generator: Adobe Illustrator 24.0.3, SVG Export Plug-In . SVG Version: 6.00 Build 0)  -->
<svg version="1.1" xmlns="http://www.w3.org/2000/svg" xmlns:xlink="http://www.w3.org/1999/xlink" x="0px" y="0px"
	 viewBox="0 0 64 64" style="enable-background:new 0 0 64 64;" xml:space="preserve">
<g id="rocket">
	<path style="fill:#231F20;" d="M58.237,14.919H39.053c-0.192-8.726-6.929-14.512-7.22-14.757c-0.255-0.215-0.628-0.216-0.884-0.001
		c-0.293,0.245-7.079,6.031-7.272,14.758H5.689c-1.44,0-2.61,1.171-2.61,2.61v34.372c0,1.44,1.171,2.61,2.61,2.61h21.243
		l-1.803,5.739h-1.96c-0.38,0-0.688,0.308-0.688,0.688v2.374c0,0.38,0.308,0.688,0.688,0.688h18.88c0.38,0,0.688-0.308,0.688-0.688
		v-2.374c0-0.38-0.308-0.688-0.688-0.688h-1.96l-1.803-5.739h20.025c1.44,0,2.61-1.171,2.61-2.61V17.603
		C60.922,16.123,59.717,14.919,58.237,14.919z M39.062,21.353l4.347,4.775v8.91h-4.347V21.353z M25.042,15.297
		c0-7.028,4.837-12.225,6.346-13.675c1.5,1.452,6.299,6.648,6.299,13.675v22.278H25.042V15.297z M35.671,41.566
		c2.845,1.178,4.905,3.687,5.51,6.713c0.048,0.242,0.224,0.44,0.459,0.518c0.234,0.078,0.492,0.023,0.677-0.142
		c0.646-0.584,1.477-0.906,2.34-0.906c1.749,0,3.189,1.299,3.443,2.982H15.9c0.254-1.684,1.694-2.982,3.443-2.982
		c0.955,0,1.848,0.381,2.516,1.073c0.18,0.187,0.45,0.257,0.695,0.181c0.247-0.075,0.431-0.283,0.477-0.536
		c0.456-2.545,1.974-4.801,4.166-6.19c0.199-0.126,0.32-0.345,0.32-0.581V38.95h7.73v1.981
		C35.247,41.209,35.414,41.46,35.671,41.566z M23.667,35.038h-4.347v-8.91l4.347-4.775V35.038z M41.361,62.625H23.857v-0.999h1.777
		h13.95h1.777V62.625z M38.647,60.251H26.571l1.803-5.739h8.471L38.647,60.251z M59.547,51.901c0,0.681-0.554,1.235-1.235,1.235
		H37.35h-9.481H5.689c-0.681,0-1.235-0.554-1.235-1.235V17.529c0-0.681,0.554-1.235,1.235-1.235h17.978v3.017L18.124,25.4
		c-0.115,0.126-0.179,0.291-0.179,0.463v9.864c0,0.38,0.308,0.688,0.688,0.688h5.035v1.849c0,0.38,0.308,0.688,0.688,0.688h1.787
		v2.375c-2.032,1.393-3.519,3.452-4.205,5.796c-0.769-0.487-1.66-0.748-2.593-0.748c-2.509,0-4.581,1.912-4.842,4.357H7.38V18.716
		h15.703v-1.375H6.693c-0.38,0-0.688,0.308-0.688,0.688v33.39c0,0.38,0.308,0.688,0.688,0.688h50.934
		c0.38,0,0.688-0.308,0.688-0.688v-33.39c0-0.38-0.308-0.688-0.688-0.688H39.584v1.375h17.355v32.015h-7.44
		c-0.261-2.446-2.333-4.357-4.842-4.357c-0.84,0-1.658,0.218-2.381,0.626c-0.873-2.874-2.919-5.243-5.654-6.517V38.95h1.752
		c0.38,0,0.688-0.308,0.688-0.688v-1.849h5.035c0.38,0,0.688-0.308,0.688-0.688v-9.864c0-0.171-0.064-0.336-0.179-0.463
		l-5.543-6.089v-3.017h19.175c0.722,0,1.31,0.587,1.31,1.309V51.901z M31.364,9.91c-2.429,0-4.404,1.975-4.404,4.404
		s1.975,4.404,4.404,4.404s4.404-1.975,4.404-4.404S33.792,9.91,31.364,9.91z M31.364,17.343c-1.67,0-3.029-1.359-3.029-3.029
		s1.359-3.029,3.029-3.029s3.029,1.359,3.029,3.029S33.034,17.343,31.364,17.343z M30.676,27.619h1.375v8.107h-1.375V27.619z"/>
</g>
<g id="Layer_1">
</g>
</svg>
