<svg width="206" height="206" viewBox="0 0 206 206" fill="none" xmlns="http://www.w3.org/2000/svg">
<g id="rocket 1">
<g id="rocket">
<path id="Vector" d="M187.45 48.0205H125.702C125.084 19.9336 103.399 1.30996 102.462 0.521368C101.642 -0.170663 100.441 -0.173882 99.6171 0.518149C98.674 1.30674 76.8316 19.9304 76.2103 48.0205H18.3115C13.6765 48.0205 9.91052 51.7896 9.91052 56.4214V167.056C9.91052 171.691 13.6797 175.457 18.3115 175.457H86.6874L80.8839 193.93H74.5752C73.3521 193.93 72.3607 194.921 72.3607 196.144V203.785C72.3607 205.009 73.3521 206 74.5752 206H135.345C136.568 206 137.56 205.009 137.56 203.785V196.144C137.56 194.921 136.568 193.93 135.345 193.93H129.036L123.233 175.457H187.689C192.324 175.457 196.089 171.688 196.089 167.056V56.6596C196.093 51.8958 192.214 48.0205 187.45 48.0205ZM125.731 68.7299L139.723 84.0994V112.778H125.731V68.7299ZM80.6039 49.2371C80.6039 26.6158 96.173 9.88793 101.03 5.22074C105.858 9.89437 121.305 26.619 121.305 49.2371V120.944H80.6039V49.2371ZM114.816 133.79C123.973 137.582 130.604 145.658 132.551 155.398C132.706 156.177 133.272 156.814 134.029 157.065C134.782 157.316 135.612 157.139 136.208 156.608C138.287 154.728 140.962 153.692 143.74 153.692C149.369 153.692 154.004 157.873 154.822 163.29H51.1781C51.9957 157.87 56.6307 153.692 62.2603 153.692C65.3342 153.692 68.2085 154.918 70.3586 157.146C70.938 157.748 71.8071 157.973 72.5957 157.728C73.3907 157.487 73.983 156.817 74.131 156.003C75.5988 147.811 80.4848 140.55 87.5403 136.079C88.1809 135.673 88.5703 134.969 88.5703 134.209V125.37H113.451V131.747C113.451 132.641 113.989 133.449 114.816 133.79ZM76.1781 112.778H62.1862V84.0994L76.1781 68.7299V112.778ZM133.131 201.574H76.7897V198.359H82.5094H127.411H133.131V201.574ZM124.395 193.933H85.5254L91.3288 175.46H118.595L124.395 193.933ZM191.667 167.056C191.667 169.248 189.884 171.031 187.692 171.031H120.22H89.7033H18.3115C16.1195 171.031 14.3363 169.248 14.3363 167.056V56.4214C14.3363 54.2294 16.1195 52.4462 18.3115 52.4462H76.1781V62.1572L58.3366 81.7562C57.9665 82.1617 57.7605 82.6928 57.7605 83.2465V114.996C57.7605 116.219 58.7518 117.211 59.975 117.211H76.1814V123.162C76.1814 124.385 77.1727 125.377 78.3959 125.377H84.1478V133.021C77.6073 137.505 72.821 144.132 70.6129 151.677C68.1377 150.11 65.2698 149.269 62.2667 149.269C54.1909 149.269 47.5216 155.424 46.6815 163.294H23.7544V60.2421H74.2984V55.8163H21.5431C20.32 55.8163 19.3286 56.8076 19.3286 58.0308V165.505C19.3286 166.728 20.32 167.719 21.5431 167.719H185.487C186.71 167.719 187.701 166.728 187.701 165.505V58.0308C187.701 56.8076 186.71 55.8163 185.487 55.8163H127.411V60.2421H183.272V163.29H159.325C158.485 155.417 151.816 149.266 143.74 149.266C141.036 149.266 138.403 149.968 136.076 151.281C133.266 142.031 126.68 134.405 117.877 130.305V125.37H123.516C124.739 125.37 125.731 124.379 125.731 123.156V117.204H141.937C143.16 117.204 144.152 116.213 144.152 114.99V83.24C144.152 82.6896 143.946 82.1585 143.576 81.7497L125.734 62.1508V52.4398H187.454C189.777 52.4398 191.67 54.3292 191.67 56.6531L191.667 167.056ZM100.953 31.8977C93.1345 31.8977 86.7775 38.2548 86.7775 46.0731C86.7775 53.8915 93.1345 60.2485 100.953 60.2485C108.771 60.2485 115.128 53.8915 115.128 46.0731C115.128 38.2548 108.768 31.8977 100.953 31.8977ZM100.953 55.8227C95.5775 55.8227 91.2033 51.4484 91.2033 46.0731C91.2033 40.6978 95.5775 36.3235 100.953 36.3235C106.328 36.3235 110.702 40.6978 110.702 46.0731C110.702 51.4484 106.328 55.8227 100.953 55.8227ZM98.7384 88.8986H103.164V114.993H98.7384V88.8986Z" fill="#FFD700"/>
</g>
</g>
</svg>
