<svg width="169" height="177" viewBox="0 0 169 177" fill="none" xmlns="http://www.w3.org/2000/svg">
<g id="search 1" clip-path="url(#clip0_35_221)">
<g id="search">
<path id="Vector" d="M86.4726 27.3932C78.4161 18.9553 67.7057 14.309 56.3114 14.309C44.9171 14.309 34.2067 18.9553 26.1502 27.3932C18.0936 35.8311 13.6574 47.0457 13.6574 58.9822C13.6574 70.9158 18.0936 82.1304 26.1502 90.5684C34.2067 99.0063 44.9171 103.653 56.3114 103.653C67.7057 103.653 78.4161 99.0063 86.4726 90.5684C94.5292 82.1304 98.9654 70.9158 98.9654 58.9822C98.9654 47.0485 94.5292 35.8311 86.4726 27.3932ZM82.1658 86.0604C75.2605 93.2925 66.0791 97.2778 56.3114 97.2778C46.5437 97.2778 37.3623 93.2953 30.457 86.0604C23.5518 78.8255 19.7493 69.2122 19.7493 58.9849C19.7493 48.7521 23.5518 39.1388 30.457 31.9067C37.3623 24.6746 46.5437 20.6893 56.3114 20.6893C66.0791 20.6893 75.2605 24.6718 82.1658 31.9067C89.071 39.1416 92.8735 48.7549 92.8735 58.9849C92.8735 69.2122 89.0736 78.8283 82.1658 86.0604ZM164.532 149.725L121.429 104.579C120.288 103.384 118.266 103.384 117.122 104.579L110.64 111.371L98.1944 98.337C118.028 75.1998 117.392 39.5039 96.1505 17.2599C74.1858 -5.74453 38.4423 -5.74453 16.4749 17.2599C-5.49242 40.2644 -5.49242 77.6999 16.4749 100.707C27.4573 112.209 41.8857 117.959 56.3114 117.959C69.7839 117.959 83.2194 112.879 93.8875 102.848L106.333 115.882L99.85 122.672C98.6618 123.916 98.6618 125.935 99.85 127.182L142.953 172.326C145.929 175.44 149.834 176.994 153.74 176.994C157.648 176.994 161.556 175.437 164.532 172.323C167.413 169.303 169 165.293 169 161.025C169 156.758 167.413 152.742 164.532 149.725ZM20.7818 96.1964C1.191 75.6755 1.191 42.2889 20.7818 21.7707C40.3726 1.25527 72.2502 1.25527 91.8437 21.7707C111.434 42.2916 111.434 75.6782 91.8437 96.1964C72.2529 116.715 40.3752 116.715 20.7818 96.1964ZM162.377 170.069L160.225 167.815C156.653 171.551 150.835 171.551 147.26 167.815L106.312 124.926L119.277 111.347L160.228 154.236C161.958 156.047 162.911 158.462 162.911 161.025C162.911 163.589 161.958 166.001 160.228 167.812L162.377 170.069Z" fill="#FFD700"/>
</g>
</g>
<defs>
<clipPath id="clip0_35_221">
<rect width="169" height="177" fill="white"/>
</clipPath>
</defs>
</svg>
