<?xml version="1.0" encoding="iso-8859-1"?>
<!-- Generator: Adobe Illustrator 24.0.3, SVG Export Plug-In . SVG Version: 6.00 Build 0)  -->
<svg version="1.1" xmlns="http://www.w3.org/2000/svg" xmlns:xlink="http://www.w3.org/1999/xlink" x="0px" y="0px"
	 viewBox="0 0 64 64" style="enable-background:new 0 0 64 64;" xml:space="preserve">
<g id="search">
	<path style="fill:#231F20;" d="M32.747,9.905c-3.051-3.051-7.107-4.731-11.422-4.731s-8.371,1.68-11.422,4.731
		s-4.731,7.106-4.731,11.422c0,4.315,1.68,8.37,4.731,11.421c3.051,3.051,7.107,4.731,11.422,4.731s8.371-1.68,11.422-4.731
		c3.051-3.051,4.731-7.106,4.731-11.421C37.478,17.012,35.798,12.956,32.747,9.905z M31.116,31.118
		c-2.615,2.615-6.092,4.056-9.791,4.056s-7.176-1.44-9.791-4.056s-4.055-6.092-4.055-9.79c0-3.7,1.44-7.176,4.055-9.791
		s6.092-4.056,9.791-4.056s7.176,1.44,9.791,4.056s4.055,6.092,4.055,9.791C35.171,25.026,33.732,28.503,31.116,31.118z
		 M62.308,54.138L45.985,37.814c-0.432-0.432-1.198-0.432-1.631,0l-2.455,2.456l-4.713-4.713c7.511-8.366,7.27-21.273-0.774-29.316
		c-8.318-8.318-21.854-8.318-30.173,0c-8.319,8.318-8.319,21.854,0,30.173c4.159,4.159,9.623,6.238,15.086,6.238
		c5.102,0,10.19-1.837,14.23-5.464l4.713,4.713l-2.455,2.455c-0.45,0.45-0.45,1.18,0,1.631L54.136,62.31
		c1.127,1.126,2.606,1.688,4.085,1.688c1.48,0,2.96-0.563,4.087-1.689C63.399,61.217,64,59.767,64,58.224
		S63.399,55.229,62.308,54.138z M7.87,34.783c-7.419-7.42-7.419-19.492,0-26.911c7.419-7.418,19.491-7.418,26.911,0
		c7.419,7.42,7.419,19.492,0,26.911C27.362,42.202,15.29,42.202,7.87,34.783z M61.492,61.494l-0.815-0.815
		c-1.353,1.351-3.556,1.351-4.91,0L40.26,45.171l4.91-4.91l15.508,15.508c0.655,0.655,1.016,1.528,1.016,2.455
		c0,0.927-0.361,1.799-1.016,2.454L61.492,61.494z"/>
</g>
<g id="Layer_1">
</g>
</svg>
