<svg width="148" height="156" viewBox="0 0 148 156" fill="none" xmlns="http://www.w3.org/2000/svg">
<g id="write-email 1">
<g id="write-email">
<path id="Vector" d="M101.32 145.105H2.76344C1.23719 145.105 0 143.809 0 142.21V13.4442C0 11.8458 1.23719 10.55 2.76344 10.55H101.32C102.846 10.55 104.083 11.8433 104.083 13.4442V55.6454H98.5564V16.3383H5.52688V139.316H98.5564V105.517H104.083V142.21C104.083 143.809 102.846 145.105 101.32 145.105Z" fill="#FFD700"/>
<path id="Vector_2" d="M65.6357 119.205C64.9142 119.205 64.2089 118.912 63.6816 118.357C62.9185 117.558 62.6688 116.367 63.0434 115.308L70.3139 94.6859C70.4526 94.296 70.67 93.94 70.9521 93.6421L130.86 30.901C131.94 29.77 133.688 29.77 134.768 30.901L147.188 43.9065C147.706 44.449 147.998 45.1828 147.998 45.953C147.998 46.7207 147.706 47.4569 147.188 47.9994L87.2807 110.741C86.9986 111.038 86.6586 111.264 86.284 111.411L66.5931 119.028C66.2809 119.144 65.9571 119.205 65.6357 119.205ZM75.2904 97.2846L70.3069 111.419L83.8027 106.2L141.331 45.953L132.818 37.038L75.2904 97.2846Z" fill="#FFD700"/>
<path id="Vector_3" d="M74.8599 93.6478L70.9519 97.7407L83.371 110.747L87.279 106.654L74.8599 93.6478Z" fill="#FFD700"/>
</g>
</g>
</svg>
