<?xml version="1.0" encoding="iso-8859-1"?>
<!-- Generator: Adobe Illustrator 25.4.0, SVG Export Plug-In . SVG Version: 6.00 Build 0)  -->
<svg version="1.1" xmlns="http://www.w3.org/2000/svg" xmlns:xlink="http://www.w3.org/1999/xlink" x="0px" y="0px"
	 viewBox="0 0 64 64" style="enable-background:new 0 0 64 64;" xml:space="preserve">
<g id="write-email">
	<path style="fill:#231F20;" d="M43.814,59.779H1.195C0.535,59.779,0,59.244,0,58.584V5.416c0-0.66,0.535-1.195,1.195-1.195h42.619
		c0.66,0,1.195,0.534,1.195,1.195v17.425h-2.39V6.611H2.39v50.778h40.229V43.433h2.39v15.151
		C45.009,59.244,44.474,59.779,43.814,59.779z"/>
	<path style="fill:#231F20;" d="M28.383,49.085c-0.312,0-0.617-0.121-0.845-0.35c-0.33-0.33-0.438-0.822-0.276-1.259l3.144-8.515
		c0.06-0.161,0.154-0.308,0.276-0.431l25.906-25.906c0.467-0.467,1.223-0.467,1.69,0l5.371,5.37c0.224,0.224,0.35,0.527,0.35,0.845
		c0,0.317-0.126,0.621-0.35,0.845L37.743,45.59c-0.122,0.123-0.269,0.216-0.431,0.277l-8.515,3.145
		C28.662,49.06,28.522,49.085,28.383,49.085z M32.558,40.034l-2.155,5.836l5.836-2.155l24.877-24.876l-3.681-3.681L32.558,40.034z"
		/>
	
		<rect x="33.018" y="38.262" transform="matrix(0.7071 -0.7071 0.7071 0.7071 -19.7202 36.5143)" style="fill:#231F20;" width="2.39" height="7.595"/>
</g>
<g id="Layer_1">
</g>
</svg>
